<?xml version="1.0" encoding="utf-8"?>
<!-- Generator: Adobe Illustrator 24.1.0, SVG Export Plug-In . SVG Version: 6.00 Build 0)  -->
<svg version="1.1" id="Capa_1" xmlns="http://www.w3.org/2000/svg" xmlns:xlink="http://www.w3.org/1999/xlink" x="0px" y="0px"
	 viewBox="0 0 512 512" style="enable-background:new 0 0 512 512;" xml:space="preserve">
<style type="text/css">
	.st0{fill:#003A40;}
</style>
<path class="st0" d="M270.5,32C121.6-12.9-13.2,121.9,31.6,270.8c18.1,60.2,66.3,106.5,126.8,123.5c61.8,17.4,120.5,3.5,164.8-28.8
	l116.3,116.3c11.5,11.5,30.4,11.5,42,0l0,0c11.5-11.5,11.5-30.4,0-42L365.2,323.6c32.3-44.4,46.1-103,28.8-164.8
	C377,98.3,330.6,50.1,270.5,32z M343.3,212.5c0,72.3-58.8,131.1-131.1,131.1c-88.4,0-156.6-88-121.8-181
	c10.7-28.7,43.2-61.1,71.9-71.9C255.3,55.9,343.3,124.1,343.3,212.5z"/>
</svg>
